<svg width="120" height="35" viewBox="0 0 120 35" fill="none" xmlns="http://www.w3.org/2000/svg">
<g clip-path="url(#clip0_1_6350)">
<path d="M22.9943 8.52324C22.3617 8.68138 21.9189 8.77627 21.4445 8.5865C21.0966 8.45998 20.8119 8.0488 20.5589 7.70088L16.289 1.84951C16.0359 1.50159 15.7513 1.09042 15.4033 0.9639C14.9605 0.774125 14.4861 0.900642 13.8535 1.02716L0 4.72775V30.5054L13.8851 26.8048C14.5177 26.6783 14.9922 26.5518 15.435 26.7415C15.7829 26.8997 16.0675 27.2792 16.3206 27.6271L20.5905 33.5101C20.8435 33.8581 21.1282 34.2376 21.4761 34.3958C21.9189 34.5539 22.3934 34.459 23.0259 34.3325L36.8795 30.6319V4.82264L22.9943 8.52324Z" fill="#9E9E9E"/>
<path d="M47.9813 15.7979V7.95397L52.4727 15.7979H54.7816V4.82269L52.6308 5.86645V12.4453H52.5992L48.2344 4.82269L45.8306 5.99297V15.7979H47.9813Z" fill="#9E9E9E"/>
<path d="M62.4037 4.82269L59.2091 6.37252L55.8564 15.7979H58.2602L59.0193 13.5206H63.0995L63.7953 15.7979H66.294L62.4037 4.82269ZM59.6519 11.6229L61.0436 7.28976H61.0752L62.4353 11.6229H59.6519Z" fill="#9E9E9E"/>
<path d="M107.254 4.82269L104.059 6.37252L100.707 15.7979H103.11L103.869 13.5206H107.918L108.614 15.7979H111.112L107.254 4.82269ZM104.502 11.6229L105.894 7.28976H105.925L107.285 11.6229H104.502Z" fill="#9E9E9E"/>
<path d="M68.2546 6.75206V15.7979H70.5319V6.75206H72.746L73.853 4.82269H66.0406L64.9336 6.75206H68.2546Z" fill="#9E9E9E"/>
<path d="M77.0483 4.82269L74.771 5.92971V15.7979H77.0483V4.82269Z" fill="#9E9E9E"/>
<path d="M83.8485 4.50635C83.7536 4.50635 83.6271 4.50635 83.5005 4.50635L79.7051 6.37246C79.0408 7.22644 78.5664 8.4916 78.5664 10.2945C78.5664 15.45 82.3935 16.0825 83.8485 16.0825C85.3034 16.0825 89.1305 15.45 89.1305 10.2945C89.1305 5.13893 85.3034 4.50635 83.8485 4.50635ZM83.8485 14.1215C82.6149 14.1215 80.8753 13.3624 80.8753 10.2945C80.8753 7.22644 82.6149 6.46735 83.8485 6.46735C85.082 6.46735 86.8216 7.22644 86.8216 10.2945C86.8216 13.3624 85.082 14.1215 83.8485 14.1215Z" fill="#9E9E9E"/>
<path d="M92.7991 7.95397L97.2588 15.7979H99.5677V4.82269L97.4169 5.86645V12.4453H97.3853L93.0521 4.82269L90.6167 5.99297V15.7979H92.7675V7.95397H92.7991Z" fill="#9E9E9E"/>
<path d="M114.559 4.82269L112.25 5.92971V15.7979H118.861L120 13.8053H114.559V4.82269Z" fill="#9E9E9E"/>
<path d="M53.2001 24.6857C53.6429 24.4643 54.5602 24.0215 54.5602 22.44C54.5602 21.3014 53.8643 19.625 51.1759 19.625H48.1395L45.8306 20.7637V30.6003H50.48C52.7257 30.6003 53.3267 30.2208 53.9592 29.6198C54.5286 29.0505 54.9081 28.2281 54.9081 27.3425C54.8765 26.2671 54.5286 25.1917 53.2001 24.6857ZM48.013 21.5228H50.6382C51.6819 21.5228 52.3145 21.8074 52.3145 22.693C52.3145 23.5787 51.5871 23.9266 50.7014 23.9266H48.013V21.5228ZM50.828 28.7026H48.013V25.7611H50.9228C51.7452 25.7611 52.5676 26.1406 52.5676 27.0895C52.5992 28.2281 51.9666 28.7026 50.828 28.7026Z" fill="#9E9E9E"/>
<path d="M68.7288 22.7879L73.1885 30.6003H75.4974V19.625L73.3466 20.6688V27.2793H73.315L68.9818 19.625L66.5464 20.7953V30.6003H68.6972V22.7879H68.7288Z" fill="#9E9E9E"/>
<path d="M61.7401 19.625L58.5456 21.1749L55.1929 30.6003H57.5967L58.3558 28.323H62.4043L63.1001 30.6003H65.5988L61.7401 19.625ZM58.9567 26.4569L60.3484 22.1237H60.38L61.7401 26.4569H58.9567Z" fill="#9E9E9E"/>
<path d="M80.7804 25.7927L84.1647 30.6003H87.1062L82.3935 24.1164L86.8532 19.625L83.3107 20.2576L79.705 24.0847V19.625L77.4277 20.7637V30.6003H79.705V26.8997L80.7804 25.7927Z" fill="#9E9E9E"/>
</g>
<defs>
<clipPath id="clip0_1_6350">
<rect width="120" height="34" fill="white" transform="translate(0 0.530029)"/>
</clipPath>
</defs>
</svg>
