<svg width="134" height="25" viewBox="0 0 134 25" fill="none" xmlns="http://www.w3.org/2000/svg">
    <g clip-path="url(#clip0_1_6300)">
        <path d="M134 17.6272V8.72858H125.256L134 17.6272Z" fill="#FFFFFF" />
        <path
            d="M3.42792 7.81857V9.85133C4.47135 7.90959 6.20046 7.27246 7.84013 7.27246C9.98661 7.27246 11.5368 8.30401 12.4312 10.003C13.3256 8.33435 15.0547 7.27246 17.38 7.27246C20.7786 7.27246 22.8655 9.42657 22.8655 13.4617V23.5952H19.4371V14.0685C19.4371 11.6413 18.3937 10.4581 16.4559 10.4581C14.2796 10.4581 13.1467 12.0358 13.1467 14.7663V23.5952H9.7183V14.0988C9.7183 11.6413 8.64506 10.4581 6.7967 10.4581C4.5906 10.4581 3.48754 12.2481 3.42792 14.9787V23.5952H-0.000488281V7.81857H3.42792Z"
            fill="#FFFFFF" />
        <path
            d="M30.0203 14.645C34.4921 13.8561 35.1778 13.7348 35.1778 12.2785C35.1778 10.7311 33.7766 10.0334 31.9581 10.0334C29.752 10.0334 28.2018 11.3076 28.2018 13.5527L25.1609 12.3391C25.6081 9.3659 28.3508 7.27246 31.9581 7.27246C35.9828 7.27246 38.5168 9.2142 38.5168 12.7336V20.4702L39.0534 23.5951H36.0126L35.3567 21.6534C34.2238 23.2311 32.286 24.0229 30.1396 24.0229C27.0391 24.0229 24.8628 22.2936 24.8628 19.472C24.8628 16.7687 26.89 15.2214 30.0203 14.645ZM30.9147 21.3804C33.717 21.3804 35.1778 19.5903 35.1778 17.2542V15.8889C34.7008 16.3136 33.8065 16.435 30.9743 16.9811C29.5135 17.2845 28.4701 17.8913 28.4701 19.2869C28.4701 20.4702 29.3644 21.3804 30.9147 21.3804Z"
            fill="#FFFFFF" />
        <path
            d="M46.2683 1.87201V7.81858H50.6805V10.8222H46.2683V18.4981C46.2683 20.4398 47.0136 20.8342 48.5639 20.8342C49.1958 20.8113 49.8245 20.7301 50.442 20.5915V23.6589C49.9352 23.8712 48.5639 23.9896 48.0571 23.9896C44.6883 23.9896 42.8399 22.5636 42.8399 18.9532V10.8222H40.0674V7.81858H42.8399V4.48122L46.2683 1.87201Z"
            fill="#FFFFFF" />
        <path
            d="M56.6726 1.87201V7.81858H61.0848V10.8222H56.6726V18.4981C56.6726 20.4398 57.4179 20.8342 58.9682 20.8342C59.6002 20.8113 60.2288 20.7301 60.8463 20.5915V23.6589C60.3395 23.8712 58.9682 23.9896 58.4614 23.9896C55.0926 23.9896 53.2442 22.5636 53.2442 18.9532V10.8222H50.4717V7.81858H53.2442V4.48122L56.6726 1.87201Z"
            fill="#FFFFFF" />
        <path
            d="M77.2726 15.4034C77.2697 15.87 77.2398 16.336 77.1832 16.7991H65.6756C66.0334 19.8027 67.7923 21.1073 70.1475 21.1073C72.3238 21.1073 73.7249 20.2274 74.5597 18.2857L77.0341 20.5308C75.5733 22.9277 72.92 24.0502 70.058 24.0502C65.1688 24.0502 62.0684 20.6219 62.0684 15.7372C62.0684 10.8525 65.3477 7.27246 69.8494 7.27246C74.4106 7.27246 77.2726 10.5794 77.2726 15.4034ZM73.5759 14.2505C73.5759 11.8234 72.1747 10.2154 69.7897 10.2154C67.7625 10.2154 66.1228 11.52 65.7054 14.2505H73.5759Z"
            fill="#FFFFFF" />
        <path
            d="M82.8474 7.81865V10.3065C83.9802 8.03103 85.8286 7.45457 87.2596 7.45457C87.7261 7.43113 88.1924 7.50335 88.6309 7.66695V11.1256C88.0622 10.9417 87.4687 10.8495 86.872 10.8526C84.487 10.8526 82.8474 12.4909 82.8474 15.98V23.5952H79.4189V7.81865H82.8474Z"
            fill="#FFFFFF" />
        <path
            d="M104.163 15.4034C104.16 15.87 104.13 16.336 104.074 16.7991H92.5663C92.924 19.8027 94.6829 21.1073 97.0381 21.1073C99.2144 21.1073 100.616 20.2274 101.45 18.2857L103.925 20.5308C102.464 22.9277 99.8107 24.0502 96.9487 24.0502C92.0595 24.0502 88.959 20.6219 88.959 15.7372C88.959 10.8525 92.2383 7.27246 96.74 7.27246C101.301 7.27246 104.163 10.5794 104.163 15.4034ZM100.467 14.2505C100.467 11.8234 99.0653 10.2154 96.6804 10.2154C94.6531 10.2154 93.0135 11.52 92.5961 14.2505H100.467Z"
            fill="#FFFFFF" />
        <path
            d="M122.349 23.5951H118.95V21.5927C117.728 23.0794 115.939 24.0502 113.524 24.0502C108.873 24.0502 105.684 20.4398 105.684 15.7068C105.684 10.9738 108.844 7.27244 113.524 7.27244C115.909 7.27244 117.698 8.24331 118.92 9.72995V1.29553H122.349V23.5951ZM114.15 20.8646C116.953 20.8646 119.039 18.7711 119.039 15.7068C119.039 12.6425 116.953 10.4278 114.15 10.4278C111.229 10.4278 109.231 12.6425 109.231 15.7068C109.231 18.7104 111.229 20.8646 114.15 20.8646Z"
            fill="#FFFFFF" />
    </g>
    <defs>
        <clipPath id="clip0_1_6300">
            <rect width="134" height="24" fill="white" transform="translate(0 0.530029)" />
        </clipPath>
    </defs>
</svg>