<svg width="181" height="36" viewBox="0 0 181 36" fill="none" xmlns="http://www.w3.org/2000/svg">
<g clip-path="url(#clip0_1_6311)">
<path d="M58.1156 22.8347C55.5091 22.8347 53.9812 20.6956 53.9812 18.2733C53.9812 15.4736 55.7189 13.6176 58.1156 13.6176C59.3739 13.6176 60.2128 14.1524 60.9918 14.6557L62.25 12.2964C61.3513 11.6987 59.8533 10.9752 58.2654 10.9752C54.131 10.9752 51.165 14.058 51.165 18.2733C51.165 22.4572 54.1909 25.5715 58.2654 25.5715C60.0031 25.5715 61.2614 24.8165 62.25 24.1874L60.9918 21.8281C60.2128 22.3943 59.0444 22.8347 58.1156 22.8347ZM66.9537 4.52637H69.6201V25.194H66.9537V4.52637ZM84.9894 11.4156L84.6898 12.611C83.9708 11.7931 82.4429 10.9752 80.825 10.9752C77.5295 10.9752 74.5036 13.712 74.5036 18.1789C74.5036 22.8032 77.5295 25.603 80.825 25.603C82.4429 25.603 83.9109 24.7851 84.6898 23.9672L84.9894 25.2255H87.2364V11.51H84.9894V11.4156ZM84.7497 18.3677C84.7497 21.5135 82.9222 22.929 81.1845 22.929C79.417 22.929 77.3797 21.6708 77.3797 18.2104C77.3797 16.0084 78.4882 13.649 80.9748 13.649C82.8623 13.649 84.7497 15.2534 84.7497 18.2104V18.3677ZM96.7636 19.4687C98.5911 19.9721 99.37 20.3496 99.37 21.3248C99.37 22.0798 98.7409 22.8661 97.2729 22.8661C95.9247 22.8661 94.8162 22.3629 93.7677 21.7652L92.5693 24.1245C93.498 24.7222 95.5652 25.5401 97.2729 25.5401C100.209 25.5401 101.916 23.4638 101.916 21.3562C101.916 17.7385 98.5312 17.1724 97.6324 16.8578C95.7449 16.323 95.2656 15.914 95.2656 15.0961C95.2656 14.2153 95.9846 13.6176 97.3628 13.6176C98.5611 13.6176 99.4599 13.9951 100.299 14.4355L101.557 12.0762C100.359 11.5414 98.9506 10.9752 97.3628 10.9752C94.4866 10.9752 92.749 13.1143 92.749 15.0961C92.749 18.2733 95.2955 19.0912 96.7636 19.4687ZM111.054 19.4687C112.882 19.9721 113.66 20.3496 113.66 21.3248C113.66 22.0798 113.031 22.8661 111.563 22.8661C110.215 22.8661 109.107 22.3629 108.058 21.7652L106.86 24.1245C107.788 24.7222 109.856 25.5401 111.563 25.5401C114.5 25.5401 116.207 23.4638 116.207 21.3562C116.207 17.7385 112.822 17.1724 111.923 16.8578C110.035 16.323 109.556 15.914 109.556 15.0961C109.556 14.2153 110.276 13.6176 111.653 13.6176C112.852 13.6176 113.751 13.9951 114.59 14.4355L115.848 12.0762C114.65 11.5414 113.242 10.9752 111.653 10.9752C108.777 10.9752 107.039 13.1143 107.039 15.0961C107.01 18.2733 109.586 19.0912 111.054 19.4687ZM127.772 10.9752C126.154 10.9752 124.686 11.7931 123.907 12.611L123.608 11.3527H121.361V30.8879H123.877V24.093L123.967 24.0301C124.686 24.848 126.154 25.5086 127.562 25.5086C130.947 25.5086 134.093 23.2122 134.093 18.0846C134.153 13.4918 131.128 10.9752 127.772 10.9752ZM127.472 22.929C125.735 22.929 123.907 21.5135 123.907 18.3677V18.2104C123.907 15.1905 125.794 13.649 127.682 13.649C130.198 13.649 131.277 16.0084 131.277 18.2104C131.277 21.6708 129.24 22.929 127.472 22.929ZM149.014 11.4156L148.714 12.6739C147.995 11.856 146.467 11.0381 144.849 11.0381C141.553 11.0381 138.527 13.7749 138.527 18.2419C138.527 22.8661 141.553 25.6659 144.849 25.6659C146.467 25.6659 147.934 24.848 148.714 24.0301L149.014 25.2884H151.261V11.5729H149.014V11.4156ZM148.744 18.3677C148.744 21.5135 146.916 22.929 145.178 22.929C143.41 22.929 141.374 21.6708 141.374 18.2104C141.374 16.0084 142.482 13.649 144.969 13.649C146.856 13.649 148.744 15.2534 148.744 18.2104V18.3677ZM160.787 19.4687C162.615 19.9721 163.394 20.3496 163.394 21.3248C163.394 22.0798 162.765 22.8661 161.296 22.8661C159.948 22.8661 158.84 22.3629 157.791 21.7652L156.593 24.1245C157.522 24.7222 159.589 25.5401 161.296 25.5401C164.233 25.5401 165.94 23.4638 165.94 21.3562C165.94 17.7385 162.555 17.1724 161.656 16.8578C159.769 16.323 159.289 15.914 159.289 15.0961C159.289 14.2153 160.009 13.6176 161.387 13.6176C162.585 13.6176 163.484 13.9951 164.323 14.4355L165.581 12.0762C164.383 11.5414 162.975 10.9752 161.387 10.9752C158.511 10.9752 156.773 13.1143 156.773 15.0961C156.743 18.2733 159.319 19.0912 160.787 19.4687ZM175.048 19.4687C176.876 19.9721 177.654 20.3496 177.654 21.3248C177.654 22.0798 177.026 22.8661 175.557 22.8661C174.209 22.8661 173.101 22.3629 172.052 21.7652L170.854 24.1245C171.782 24.7222 173.85 25.5401 175.557 25.5401C178.494 25.5401 180.201 23.4638 180.201 21.3562C180.201 17.7385 176.816 17.1724 175.917 16.8578C174.029 16.323 173.55 15.914 173.55 15.0961C173.55 14.2153 174.27 13.6176 175.648 13.6176C176.846 13.6176 177.745 13.9951 178.583 14.4355L179.842 12.0762C178.644 11.5414 177.235 10.9752 175.648 10.9752C172.772 10.9752 171.033 13.1143 171.033 15.0961C171.033 18.2733 173.61 19.0912 175.048 19.4687Z" fill="#9E9E9E"/>
<path d="M28.3025 0.154297H23.479C22.6402 0.154297 21.8013 0.814818 21.7114 1.69565L20.9924 5.31336C20.9025 5.97388 20.3632 6.4143 19.7341 6.4143H14.4013C7.18101 6.50867 0.5 12.234 0.5 20.35C0.5 27.5853 6.25226 34.1915 14.5212 34.1915H19.9737C20.8126 34.1915 21.6515 33.5308 21.7414 32.65L22.4605 29.0324C22.5503 28.3718 23.0896 27.9314 23.7187 27.9314H28.4224C36.4816 27.9314 42.4435 21.451 42.4435 14.09C42.3236 5.97388 35.7326 0.154297 28.3025 0.154297ZM28.1827 22.5521H22.5204C21.6815 22.5521 20.9624 23.2127 20.7527 24.0935L20.0337 27.6168C19.9438 28.2774 19.4045 28.7178 18.7754 28.7178H14.581C10.2968 28.7178 5.68302 25.5405 5.68302 20.2556C5.68302 15.4111 9.75753 11.7935 14.581 11.7935H21.0523C21.8912 11.7935 22.6103 11.1329 22.82 10.2522L23.5389 6.72888C23.6288 6.06826 24.1681 5.62784 24.7973 5.62784H28.1527C32.6467 5.62784 37.0507 8.93096 37.0507 14.09C36.9908 18.8086 33.126 22.5521 28.1827 22.5521Z" fill="#9E9E9E"/>
</g>
<defs>
<clipPath id="clip0_1_6311">
<rect width="180" height="35" fill="white" transform="translate(0.5 0.0300293)"/>
</clipPath>
</defs>
</svg>
