<svg width="95" height="33" viewBox="0 0 95 33" fill="none" xmlns="http://www.w3.org/2000/svg">
<g clip-path="url(#clip0_1_6315)">
<path d="M36.7982 28.1329C33.3005 25.8798 28.5536 25.4844 20.8981 27.6083C12.7369 29.5261 10.0159 30.7555 6.44233 28.2876C5.06946 27.0752 4.57725 25.1232 4.94479 22.3114C5.79726 17.7277 8.10096 13.3167 12.1929 8.42376C14.477 5.87847 16.5956 3.69415 19.3933 2.81701C21.5374 2.26676 21.337 3.95183 21.0775 4.19282C20.8038 4.19282 20.3439 4.23594 19.9884 4.46789C19.7 4.69161 18.9081 5.414 18.8656 6.38572C18.8043 7.87327 20.3438 7.56366 21.0077 6.74692C21.7234 5.82654 22.7812 4.06404 21.9492 2.42139C21.6004 1.83671 20.9979 1.43263 20.2498 1.29503C17.688 1.14863 15.3022 2.36981 13.1003 3.71988C8.28497 7.06499 4.43296 11.7001 2.25334 16.7737C0.996675 19.835 -0.139785 24.2201 1.56373 27.7891C2.88149 30.2656 5.61736 31.581 8.8814 31.3059C11.1706 31.0654 13.9388 30.3255 15.8006 29.8788C17.6624 29.4313 27.1927 26.1553 30.3241 31.857C30.3241 31.857 31.3654 29.8356 33.9676 29.7925C36.1071 29.5951 39.1935 30.4119 41.4411 32.0626C40.6923 30.9365 38.5693 29.2768 36.7982 28.1329Z" fill="#9E9E9E"/>
<path d="M21.8695 8.99984C20.087 7.83036 16.5044 10.0662 13.635 13.9012C11.011 17.3413 9.87793 21.3394 11.111 23.1883C12.9453 25.3638 16.3504 22.1994 17.7985 20.5056L17.9853 20.3077C18.9701 19.2499 19.7309 17.9772 20.4672 16.756C20.4672 16.756 21.144 15.6381 21.1764 15.5864C21.5947 15.5093 22.0985 15.3889 22.6663 15.2254C22.6582 15.251 20.494 18.8886 20.7148 20.6941C20.7836 21.245 20.731 23.2571 22.6956 23.8676C25.314 24.3064 27.4048 22.2767 29.2493 20.4709C29.2493 20.4709 29.5636 20.1702 29.7414 19.9985C29.6964 20.1786 29.6378 20.4189 29.6378 20.4189C28.8712 23.0848 29.9045 23.6441 30.5509 23.8505C32.5043 24.4184 34.838 21.5804 34.8455 21.5804C34.785 22.4744 34.608 23.2139 35.5504 23.8073C36.4398 24.1257 37.34 23.6403 38.0242 23.1845C40.4888 21.4475 42.4743 18.7289 44.0781 16.3789H43.0551C43.043 16.3789 40.5308 20.02 38.8996 20.8114C38.897 20.8114 38.6002 20.9638 38.4291 20.8432C38.2174 20.6625 38.3009 20.287 38.4317 20.021C38.4399 20.0036 44.7301 9.09396 44.7301 9.09396H41.7601C41.7601 9.09396 41.4357 9.61883 41.4093 9.65326C41.3893 9.6361 41.3417 9.54586 41.3087 9.50262C39.4686 6.95734 35.3017 10.8724 32.1646 15.4126C30.9568 17.1584 29.4191 19.1241 27.8246 20.5429C27.8246 20.5429 25.4625 22.7082 24.4532 21.1525C24.0843 20.4988 24.1978 19.5432 24.4058 18.9156C25.581 15.5705 27.6058 12.5347 29.91 10.7029C30.5605 10.1959 31.2675 10.0492 31.6184 10.2643C31.9526 10.4624 32.0066 10.9521 31.7951 11.2875C31.2584 11.2704 30.8285 11.4335 30.479 11.7947C29.7904 12.5171 29.5512 13.2137 29.7701 13.8674C30.8336 15.3808 32.9546 12.3882 32.852 10.5651C32.8153 9.91152 32.4666 9.29253 31.9462 8.99126C31.1706 8.52714 29.9873 8.64734 29.2216 9.01735C28.1965 9.40416 26.5738 10.7541 25.6267 11.8034C24.4343 13.1192 22.3893 14.5809 21.7498 14.4173C21.9593 13.8581 23.6866 10.324 21.8695 8.99984ZM36.1882 14.2281C36.7659 13.4285 38.4475 11.2872 38.8574 10.9261C40.2362 9.71318 40.7872 10.2469 40.8349 10.625C39.5482 12.9295 38.0295 15.5696 36.6016 17.9431C36.6046 17.9346 36.1548 18.6224 36.1548 18.6224C35.5242 19.5853 34.8892 20.4108 33.8534 20.9869C33.7057 21.0302 33.4623 21.0474 33.3002 20.9266C33.1052 20.7976 33.0282 20.5826 33.0502 20.3589C33.1122 19.6196 33.8651 17.3584 36.1882 14.2281ZM20.0313 15.6125C20.0313 15.6125 20.0055 15.6901 19.9927 15.7155C19.9894 15.7155 18.6978 17.8221 18.6978 17.8221C17.9183 18.8628 16.9451 20.1702 15.7285 20.7976C15.3679 20.9181 14.8694 20.9956 14.6154 20.6777C14.0769 20.0326 14.3544 19.1383 14.5799 18.416L14.6597 18.158C15.3062 16.404 16.332 14.8558 17.3304 13.4197C17.3428 13.4112 17.3708 13.4027 17.3809 13.4027C17.3832 13.4112 17.3872 13.4112 17.389 13.4285C18.0155 14.6322 19.1903 15.1909 20.0688 15.4493C20.0741 15.4493 20.0797 15.4578 20.0797 15.4751C20.0799 15.5007 20.0655 15.5354 20.0313 15.6125ZM21.255 13.1276C21.2493 13.1447 20.6797 14.4517 20.6797 14.4517C20.5973 14.5204 20.4671 14.4861 20.3179 14.4517L20.0622 14.4085C19.2594 14.1592 18.6538 13.626 18.467 12.9898C18.2095 11.7514 19.2673 10.7797 19.7335 10.4274C20.1807 10.1175 20.8759 9.95418 21.2796 10.2725C21.5286 10.5649 21.623 10.9431 21.623 11.3562C21.6231 11.915 21.4506 12.5427 21.255 13.1276Z" fill="#9E9E9E"/>
<path d="M58.8011 17.1173C58.5147 16.4983 57.8349 16.1027 57.1104 16.1456C54.7577 16.3607 52.4564 18.2955 51.2482 21.0728C50.6141 22.5004 50.2681 23.6784 50.0412 25.553C50.7728 24.7105 52.265 23.3261 53.9584 22.5693C53.9584 22.5693 54.1889 20.7721 55.3639 19.1726C55.8085 18.5103 56.6983 17.4441 57.6974 17.7277C58.5703 18.0203 58.2635 20.4367 57.1033 22.7751C56.2449 24.4952 54.9312 26.2155 53.6021 27.4019C52.4269 28.3995 50.6883 29.6033 49.1671 28.6747C48.209 28.1074 47.7204 26.9204 47.8236 25.3898C48.2814 21.0473 50.2581 17.3496 53.0869 13.136C56.0038 9.22343 59.219 5.20764 63.5504 3.06608C64.4339 2.61899 65.2521 2.51583 65.9593 2.79101C65.9593 2.79101 61.8933 5.0268 59.9552 9.16316C59.4621 10.2124 58.7764 11.6309 59.467 12.8865C59.8278 13.5399 60.4685 13.5916 60.9844 13.5572C63.3601 13.0067 64.895 10.7882 66.1491 8.75896C66.8761 7.21971 67.5224 5.68903 67.5224 3.98634C67.5224 3.78001 67.5117 3.50494 67.4942 3.29838C68.6292 2.69666 70.9567 3.76274 70.9567 3.76274C72.7755 4.36493 76.6482 7.3318 77.9545 7.89909C78.5917 7.15966 79.6389 6.04189 80.2285 5.48282L79.375 4.95818C78.0085 4.12405 76.564 3.33281 75.1423 2.55037C71.9135 0.787754 69.2854 1.40674 67.9478 1.88838C67.4221 2.07744 66.9416 2.24088 66.9416 2.24088C65.949 1.15741 64.321 1.26034 63.1214 1.55292C58.8075 2.79113 54.8023 5.80935 50.5083 11.0464C47.3513 15.1483 45.393 18.6913 44.3493 22.1911C43.5448 24.547 43.3002 28.0126 45.2639 30.0679C46.9335 31.813 49.1473 31.435 50.7106 30.8074C54.0978 29.1392 57.1421 25.5445 58.659 21.4083C59.025 20.1787 59.4313 18.4417 58.8011 17.1173ZM66.5897 4.15848C66.1413 9.30087 62.1441 12.3194 61.1551 12.5598C60.5557 12.68 59.533 12.4136 60.446 10.2555C61.7905 7.34872 64.086 4.88099 66.5489 3.6168C66.6088 3.83183 66.6073 3.96907 66.5897 4.15848Z" fill="#9E9E9E"/>
<path d="M90.3011 4.81176C88.151 6.03306 85.9221 6.82395 83.224 6.54888C82.4762 7.39183 81.7482 8.26027 81.0771 9.15444C84.8641 10.1176 88.8788 7.97639 91.1178 5.93859C93.4863 3.88328 94.7009 1.2951 94.7009 1.2951C94.7009 1.2951 92.9255 3.32433 90.3011 4.81176Z" fill="#9E9E9E"/>
<path d="M48.0748 11.679L49.6663 9.09406H46.8458L45.2549 11.679H48.0748Z" fill="#9E9E9E"/>
<path d="M83.2125 28.3723C82.9093 28.5786 82.4832 28.42 82.6425 27.9471C83.0393 26.7432 84.6169 24.2898 84.6169 24.2898L89.0109 16.4965H86.001C85.858 16.7315 85.5521 17.2712 85.5521 17.2712C85.4128 17.0393 84.9964 16.5234 84.825 16.412C84.0897 15.9473 83.0108 16.1671 82.2665 16.5883C79.0307 18.4804 76.6698 22.2187 74.8079 25.134C74.8079 25.134 72.8478 28.3746 71.7598 28.6156C70.9104 28.6845 70.998 27.5402 71.0348 27.2736C71.3632 25.3471 72.1259 23.5156 72.8944 21.8559C74.4572 20.7725 76.2409 19.3537 77.8618 17.7973C81.3795 14.4346 84.3451 10.6252 84.7786 9.77391C84.7786 9.77391 84.3094 9.86862 83.7554 9.88565C81.0491 13.6607 75.5111 19.1472 73.8321 19.964C74.5759 18.175 79.3813 9.6362 83.4707 5.55166L84.1142 4.93232C85.1092 3.9606 86.1403 2.96314 86.9437 2.7997C87.0286 2.79112 87.1378 2.7997 87.2322 2.9978C87.268 3.75438 86.9864 4.31345 86.6633 4.94971L86.2104 5.87855C86.2104 5.87855 86.8518 5.75811 87.2731 5.62017C87.7619 4.70049 88.3032 3.66826 88.1037 2.43885C88.0371 2.04323 87.7507 1.74231 87.3765 1.67346C86.1566 1.44128 84.8271 2.34391 83.7574 3.07512L83.7141 3.10073C78.215 7.40899 73.5714 13.6177 69.5117 22.0966C69.2174 22.3198 68.0806 22.5867 67.8873 22.4575C68.2883 21.6322 68.793 20.5227 69.0457 19.3188C69.0894 18.9747 69.13 18.6223 69.13 18.2784C69.13 17.5383 68.9524 16.842 68.2893 16.3606C67.5119 15.9735 66.5511 16.1542 65.9034 16.4465C63.0013 17.6504 60.8324 20.6259 59.2673 23.0764C58.4255 24.6333 57.5862 26.3007 57.3538 28.2101C57.1901 29.7061 57.5234 30.6693 58.374 31.151C59.2487 31.5979 60.3497 31.1334 60.7822 30.91C63.7222 29.3622 65.7763 26.2581 67.3956 23.4201C67.46 23.4116 68.3441 23.386 69.0128 23.2138C69.0217 23.2138 69.0254 23.2138 69.0403 23.2228C69.0019 23.3512 68.6564 24.3835 68.6564 24.3835C67.6301 27.393 67.1556 29.4399 68.1249 30.6521C69.5101 32.3635 71.8034 30.5922 73.6689 28.2528C73.2685 31.0561 74.7214 31.4948 75.8288 31.28C77.101 30.9362 78.5186 29.5772 79.1765 28.8809C78.9652 29.6977 79.0227 31.1597 80.18 31.3058C80.9732 31.4524 81.5668 31.0209 82.2537 30.6511C84.7176 29.3094 87.6669 24.8389 88.4327 23.5464H87.4287C86.3401 25.1915 84.9549 27.3485 83.2125 28.3723ZM61.0969 28.0729C60.9406 27.8407 60.8888 27.5868 60.8836 27.3123C60.8537 25.6262 62.6678 22.6065 63.9483 20.9615C63.951 20.9615 63.951 20.9615 63.951 20.9615C64.4876 22.1365 65.7028 22.8918 66.4363 23.2101C65.5252 25.2397 62.4006 29.5863 61.0969 28.0729ZM66.9505 22.3028C66.8637 22.3633 65.3314 21.8471 65.0353 20.4283C64.7841 19.2068 65.6252 18.2523 66.439 17.7712C66.7884 17.4959 67.3145 17.4015 67.7005 17.5385C68.0588 17.7796 68.1558 18.2099 68.1558 18.6736C68.1558 18.9579 68.1181 19.25 68.0849 19.5165C68.0849 19.5165 68.0785 19.5683 68.0775 19.5769C67.8221 20.5311 67.4314 21.4685 66.9505 22.3028ZM79.2405 27.5312L78.9499 27.7891C78.5365 28.1586 78.1111 28.5543 77.5977 28.3564C77.4558 28.3048 77.3561 28.1159 77.3321 27.9692C77.3087 26.9115 77.7851 25.9314 78.247 24.9771L78.3654 24.7275C79.6941 22.509 81.2385 19.8949 83.5067 18.0807C83.889 17.8049 84.3037 17.5732 84.7415 17.7539C84.8422 17.8482 84.9595 18.0118 84.9595 18.175C84.9595 18.2268 84.9136 18.3643 84.887 18.4071C84.2536 19.4309 83.6502 20.5056 83.0635 21.5374C81.917 23.5756 80.7275 25.6821 79.2405 27.5312Z" fill="#9E9E9E"/>
</g>
<defs>
<clipPath id="clip0_1_6315">
<rect width="95" height="32" fill="white" transform="translate(0 0.530029)"/>
</clipPath>
</defs>
</svg>
