<svg width="136" height="40" viewBox="0 0 136 40" fill="none" xmlns="http://www.w3.org/2000/svg">
<path fill-rule="evenodd" clip-rule="evenodd" d="M17.0609 2.78009C16.6557 2.69725 16.2377 2.69725 15.8325 2.78009C15.364 2.87586 14.9453 3.10898 14.6125 3.2943L14.5217 3.34469L3.24048 9.57475C3.20929 9.59197 3.17716 9.60957 3.14423 9.6276C2.79187 9.82052 2.34883 10.0631 2.0086 10.4301C1.71444 10.7474 1.49184 11.1234 1.35566 11.5331C1.19816 12.007 1.2 12.5098 1.20146 12.9097C1.2016 12.947 1.20173 12.9835 1.20173 13.019V25.3198C1.20173 25.3553 1.2016 25.3918 1.20146 25.4291C1.2 25.829 1.19816 26.3318 1.35566 26.8057C1.49184 27.2154 1.71445 27.5914 2.0086 27.9087C2.34883 28.2757 2.79187 28.5183 3.14423 28.7112C3.17716 28.7293 3.2093 28.7469 3.24049 28.7641L14.5217 34.9941L14.6125 35.0445C14.9453 35.2299 15.364 35.463 15.8325 35.5587C16.2377 35.6416 16.6557 35.6416 17.0609 35.5587C17.5293 35.463 17.948 35.2298 18.2809 35.0445L18.3716 34.9941L29.6529 28.7641C29.6667 28.7565 29.6806 28.7488 29.6948 28.741C29.7126 28.7312 29.7308 28.7213 29.7491 28.7112C30.1015 28.5183 30.5445 28.2757 30.8848 27.9087C31.1789 27.5914 31.4015 27.2154 31.5377 26.8057C31.6952 26.3318 31.6934 25.829 31.6919 25.4291C31.6918 25.3917 31.6916 25.3553 31.6916 25.3198V13.019C31.6916 12.9835 31.6918 12.947 31.6919 12.9097C31.6934 12.5098 31.6952 12.007 31.5377 11.5331C31.4015 11.1234 31.1789 10.7474 30.8848 10.4301C30.5445 10.0631 30.1015 9.82052 29.7491 9.62759L29.7479 9.62691C29.7154 9.60912 29.6837 9.59175 29.6529 9.57475L18.3716 3.34468L18.2809 3.2943C17.948 3.10897 17.5293 2.87586 17.0609 2.78009ZM16.0025 5.99412C16.2335 5.86653 16.3514 5.80207 16.4394 5.75989L16.4467 5.75642L16.454 5.75989C16.5419 5.80207 16.6599 5.86653 16.8909 5.99412L27.0279 11.5923L16.4466 17.4358L5.86537 11.5923L16.0025 5.99412ZM4.25072 14.1678L14.9221 20.061L14.9222 31.7481L4.72121 26.1146C4.47736 25.98 4.35286 25.9105 4.26551 25.8552L4.25814 25.8505L4.25759 25.8418C4.25136 25.739 4.25072 25.5971 4.25072 25.3198V14.1678Z" fill="#9E9E9E"/>
<path d="M45.566 24.234H50.4189V27.0767H41.8613V11.9586H45.566V24.234Z" fill="#9E9E9E"/>
<path d="M53.8324 13.8106C53.1825 13.8106 52.6481 13.624 52.2292 13.2507C51.8248 12.863 51.6226 12.3893 51.6226 11.8293C51.6226 11.255 51.8248 10.7813 52.2292 10.408C52.6481 10.0204 53.1825 9.82654 53.8324 9.82654C54.4679 9.82654 54.9879 10.0204 55.3923 10.408C55.8111 10.7813 56.0205 11.255 56.0205 11.8293C56.0205 12.3893 55.8111 12.863 55.3923 13.2507C54.9879 13.624 54.4679 13.8106 53.8324 13.8106ZM55.6739 15.0597V27.0766H51.9693V15.0597H55.6739Z" fill="#9E9E9E"/>
<path d="M62.7349 14.8875C63.587 14.8875 64.3309 15.0598 64.9664 15.4044C65.6163 15.7489 66.1146 16.2012 66.4612 16.7611V15.0598H70.1659V27.0552C70.1659 28.1607 69.942 29.1585 69.4943 30.0486C69.061 30.9531 68.3894 31.671 67.4795 32.2022C66.584 32.7334 65.4646 32.999 64.1214 32.999C62.3305 32.999 60.879 32.5755 59.7668 31.7284C58.6547 30.8957 58.0192 29.7615 57.8603 28.3258H61.5217C61.6372 28.7852 61.9116 29.1441 62.3449 29.4026C62.7782 29.6754 63.3126 29.8118 63.9481 29.8118C64.7136 29.8118 65.3202 29.5892 65.768 29.1442C66.2301 28.7134 66.4612 28.0171 66.4612 27.0552V25.3539C66.1001 25.9138 65.6019 26.3732 64.9664 26.7321C64.3309 27.0767 63.587 27.249 62.7349 27.249C61.7383 27.249 60.8356 26.9978 60.0268 26.4953C59.218 25.9784 58.5753 25.2534 58.0987 24.3201C57.6365 23.3726 57.4054 22.2814 57.4054 21.0467C57.4054 19.812 57.6365 18.728 58.0987 17.7948C58.5753 16.8616 59.218 16.1438 60.0268 15.6413C60.8356 15.1388 61.7383 14.8875 62.7349 14.8875ZM66.4612 21.0683C66.4612 20.1494 66.2012 19.4244 65.6813 18.8931C65.1758 18.3619 64.5547 18.0963 63.8181 18.0963C63.0815 18.0963 62.4533 18.3619 61.9333 18.8931C61.4278 19.41 61.175 20.1279 61.175 21.0467C61.175 21.9656 61.4278 22.6978 61.9333 23.2434C62.4533 23.7746 63.0815 24.0402 63.8181 24.0402C64.5547 24.0402 65.1758 23.7746 65.6813 23.2434C66.2012 22.7121 66.4612 21.9871 66.4612 21.0683Z" fill="#9E9E9E"/>
<path d="M80.0604 14.9306C81.4469 14.9306 82.559 15.39 83.3967 16.3089C84.2344 17.2134 84.6533 18.4624 84.6533 20.0561V27.0767H80.9703V20.5514C80.9703 19.7474 80.7609 19.1229 80.342 18.6778C79.9232 18.2327 79.3599 18.0102 78.6522 18.0102C77.9445 18.0102 77.3812 18.2327 76.9623 18.6778C76.5435 19.1229 76.334 19.7474 76.334 20.5514V27.0767H72.6294V11.1403H76.334V16.675C76.7096 16.1438 77.2223 15.7202 77.8722 15.4044C78.5222 15.0885 79.2516 14.9306 80.0604 14.9306Z" fill="#9E9E9E"/>
<path d="M93.7487 23.954V27.0767H91.8639C90.5207 27.0767 89.4736 26.7537 88.7225 26.1076C87.9715 25.4472 87.596 24.3776 87.596 22.8988V18.1179H86.1228V15.0598H87.596V12.1309H91.3006V15.0598H93.727V18.1179H91.3006V22.9419C91.3006 23.3008 91.3873 23.5592 91.5606 23.7171C91.7339 23.8751 92.0228 23.954 92.4272 23.954H93.7487Z" fill="#9E9E9E"/>
<path d="M99.3003 16.7611C99.6469 16.2012 100.145 15.7489 100.795 15.4044C101.445 15.0598 102.189 14.8875 103.027 14.8875C104.023 14.8875 104.926 15.1388 105.735 15.6413C106.544 16.1438 107.179 16.8616 107.641 17.7948C108.118 18.728 108.356 19.812 108.356 21.0467C108.356 22.2814 108.118 23.3726 107.641 24.3201C107.179 25.2534 106.544 25.9784 105.735 26.4953C104.926 26.9978 104.023 27.249 103.027 27.249C102.174 27.249 101.431 27.0839 100.795 26.7537C100.16 26.4091 99.6614 25.9569 99.3003 25.3969V27.0767H95.5956V11.1403H99.3003V16.7611ZM104.586 21.0467C104.586 20.1279 104.326 19.41 103.807 18.8931C103.301 18.3619 102.673 18.0963 101.922 18.0963C101.185 18.0963 100.557 18.3619 100.037 18.8931C99.5314 19.4244 99.2786 20.1494 99.2786 21.0683C99.2786 21.9871 99.5314 22.7121 100.037 23.2434C100.557 23.7746 101.185 24.0402 101.922 24.0402C102.658 24.0402 103.287 23.7746 103.807 23.2434C104.326 22.6978 104.586 21.9656 104.586 21.0467Z" fill="#9E9E9E"/>
<path d="M115.586 27.249C114.402 27.249 113.333 26.9978 112.379 26.4953C111.441 25.9928 110.697 25.2749 110.148 24.3417C109.614 23.4085 109.346 22.3173 109.346 21.0683C109.346 19.8335 109.621 18.7496 110.17 17.8164C110.719 16.8688 111.47 16.1438 112.423 15.6413C113.376 15.1388 114.445 14.8875 115.629 14.8875C116.814 14.8875 117.882 15.1388 118.836 15.6413C119.789 16.1438 120.54 16.8688 121.089 17.8164C121.638 18.7496 121.912 19.8335 121.912 21.0683C121.912 22.303 121.63 23.3941 121.067 24.3417C120.518 25.2749 119.76 25.9928 118.792 26.4953C117.839 26.9978 116.77 27.249 115.586 27.249ZM115.586 24.0617C116.294 24.0617 116.893 23.8033 117.384 23.2864C117.89 22.7696 118.142 22.0302 118.142 21.0683C118.142 20.1063 117.897 19.3669 117.406 18.8501C116.929 18.3332 116.337 18.0748 115.629 18.0748C114.907 18.0748 114.308 18.3332 113.831 18.8501C113.354 19.3526 113.116 20.092 113.116 21.0683C113.116 22.0302 113.347 22.7696 113.809 23.2864C114.286 23.8033 114.878 24.0617 115.586 24.0617Z" fill="#9E9E9E"/>
<path d="M130.81 27.0767L128.492 23.7387L126.542 27.0767H122.534L126.52 20.939L122.426 15.0598H126.585L128.904 18.3763L130.853 15.0598H134.861L130.81 21.1113L134.97 27.0767H130.81Z" fill="#9E9E9E"/>
</svg>
