<svg width="119" height="25" viewBox="0 0 119 25" fill="none" xmlns="http://www.w3.org/2000/svg">
    <g clip-path="url(#clip0_1_6334)">
        <path
            d="M19.9745 16.6554C19.9745 19.5562 18.3028 21.3262 15.6478 21.867C14.9103 22.0145 13.6812 22.0145 12.8453 22.0145L6.40451 21.9654V24.4237L0.701172 19.7529L6.40451 15.082V17.5404L13.632 17.5895C14.3203 17.5895 14.6153 17.1962 14.6153 16.8029C14.6153 16.0654 13.927 15.8195 11.862 14.8362C8.56784 13.2629 6.01117 12.132 6.01117 8.54291C6.01117 5.74041 8.027 3.82291 10.977 3.42957C11.567 3.33124 12.6978 3.33124 13.3862 3.33124C14.8612 3.33124 18.9912 3.42957 18.9912 3.42957V7.90374L12.2062 7.80541C11.6162 7.80541 11.3212 8.19874 11.3212 8.59207C11.3212 9.18207 11.8128 9.42791 13.7303 10.3129C17.762 12.1812 19.9745 13.2137 19.9745 16.6554ZM30.6437 16.3112C30.6437 17.147 29.9062 17.8354 28.5787 17.8354C27.1528 17.8354 26.5137 17.147 26.5137 16.3112V3.38041H20.9578V16.7537C20.9578 19.7037 23.4162 22.5062 28.5295 22.5062C33.397 22.5062 36.1012 19.7529 36.1012 16.7537V3.38041H30.6437V16.3112ZM53.162 16.4095C53.162 20.097 50.6545 22.1129 47.0162 22.1129H37.822V3.38041H46.672C50.6545 3.38041 52.6703 5.59291 52.6703 8.49374C52.6703 9.96874 51.982 11.247 50.6053 12.1812C52.2278 13.0662 53.162 14.4429 53.162 16.4095ZM43.2795 10.8045H45.8362C46.8195 10.8045 47.262 10.1162 47.262 9.13291C47.262 8.10041 46.8195 7.46124 45.8362 7.46124H43.2795V10.8045ZM47.6062 16.1637C47.6062 15.0329 47.0653 14.3937 46.082 14.3937H43.2795V17.9337H46.082C47.1145 17.9337 47.6062 17.2454 47.6062 16.1637Z"
            fill="#FFFFFF" />
        <path
            d="M71.5504 3.38039H77.0079V16.557C77.0079 19.6054 74.8446 22.3587 70.2721 22.3587C68.3054 22.3587 66.7813 21.7687 65.6996 20.8837C64.6179 21.7687 63.1429 22.3587 61.3238 22.3587C56.4563 22.3587 54.4404 19.6054 54.4404 16.557V3.38039H59.8979V16.4587C59.8979 16.9995 60.1929 17.6879 61.4221 17.6879C62.6513 17.6879 62.9954 17.0487 62.9954 16.4587V3.38039H68.4529V16.4587C68.4529 16.9995 68.7479 17.6879 69.9771 17.6879C71.2063 17.6879 71.5504 17.0487 71.5504 16.4587V3.38039ZM100.51 10.7554V3.38039H95.1013V11.247C95.1013 13.8529 96.8713 15.8195 99.8704 16.6554V22.0637H105.426V16.6554C108.475 15.8195 110.146 13.8529 110.146 11.247V8.34622C110.146 8.05122 110.294 7.90372 110.589 7.90372H112.998V10.2637L118.701 5.59289L112.998 0.922058V3.28206H109.212C106.016 3.28206 104.689 5.15039 104.689 7.80539V10.7554C104.689 11.4437 104.197 12.2795 102.575 12.2795C101.001 12.2795 100.51 11.4437 100.51 10.7554ZM93.7246 8.73956V22.1129H88.2671V16.6554H84.1371V22.0637H78.6796V8.73956C78.6796 5.39622 81.4329 2.83956 86.2021 2.83956C90.9221 2.83956 93.7246 5.34706 93.7246 8.73956ZM88.2671 12.3779V9.03456C88.2671 8.14956 87.6279 7.51039 86.2021 7.51039C84.7271 7.51039 84.1371 8.14956 84.1371 9.03456V12.3779H88.2671Z"
            fill="#FFFFFF" />
    </g>
    <defs>
        <clipPath id="clip0_1_6334">
            <rect width="119" height="24" fill="white" transform="translate(0 0.530029)" />
        </clipPath>
    </defs>
</svg>