<svg width="132" height="39" viewBox="0 0 132 39" fill="none" xmlns="http://www.w3.org/2000/svg">
    <path fill-rule="evenodd" clip-rule="evenodd"
        d="M18.0247 36.4964C27.3161 36.4964 34.8482 28.9642 34.8482 19.6729C34.8482 10.3815 27.3161 2.84937 18.0247 2.84937C8.7333 2.84937 1.20117 10.3815 1.20117 19.6729C1.20117 28.9642 8.7333 36.4964 18.0247 36.4964ZM23.2731 10.6864C23.5285 9.77903 22.6479 9.24242 21.8436 9.81541L10.6166 17.8135C9.74434 18.4349 9.88154 19.6729 10.8226 19.6729H13.779V19.65H19.5409L14.8461 21.3065L12.7764 28.6593C12.5209 29.5668 13.4014 30.1034 14.2058 29.5304L25.4329 21.5323C26.3051 20.9109 26.1678 19.6729 25.2268 19.6729H20.7435L23.2731 10.6864Z"
        fill="#FFFFFF" />
    <path
        d="M43.5508 27.2506V24.5893H45.6614V13.8528H43.5508V11.1917H51.8096C52.7884 11.1917 53.6373 11.36 54.3561 11.6964C55.0902 12.0176 55.6561 12.484 56.0537 13.0957C56.4667 13.6922 56.6731 14.4111 56.6731 15.2523V15.4817C56.6731 16.2158 56.5355 16.82 56.2602 17.2941C55.9849 17.7529 55.6561 18.1122 55.2737 18.3722C54.9067 18.6169 54.5549 18.7929 54.2184 18.9V19.3129C54.5549 19.4047 54.922 19.5805 55.3196 19.8405C55.7173 20.0852 56.0537 20.4447 56.329 20.9188C56.6196 21.3929 56.7649 22.0123 56.7649 22.777V23.0063C56.7649 23.8934 56.5584 24.6582 56.1455 25.3006C55.7325 25.9276 55.159 26.4093 54.4249 26.7458C53.7061 27.0822 52.8649 27.2506 51.9014 27.2506H43.5508ZM48.6896 24.4976H51.5343C52.192 24.4976 52.7196 24.337 53.1173 24.0159C53.5302 23.6947 53.7367 23.2359 53.7367 22.6394V22.41C53.7367 21.8135 53.5378 21.3547 53.1402 21.0335C52.7425 20.7123 52.2073 20.5517 51.5343 20.5517H48.6896V24.4976ZM48.6896 17.7987H51.4884C52.1155 17.7987 52.6278 17.6381 53.0255 17.3169C53.4384 16.9957 53.6449 16.5523 53.6449 15.9864V15.757C53.6449 15.1758 53.4461 14.7323 53.0484 14.4264C52.6508 14.1053 52.1308 13.9447 51.4884 13.9447H48.6896V17.7987Z"
        fill="#FFFFFF" />
    <path
        d="M63.6028 27.5716C62.471 27.5716 61.454 27.3422 60.5516 26.8834C59.6493 26.4246 58.9381 25.7593 58.4181 24.8875C57.8981 24.0158 57.6381 22.9681 57.6381 21.7446V21.3775C57.6381 20.154 57.8981 19.1063 58.4181 18.2346C58.9381 17.3628 59.6493 16.6975 60.5516 16.2387C61.454 15.7799 62.471 15.5505 63.6028 15.5505C64.7346 15.5505 65.7516 15.7799 66.654 16.2387C67.5563 16.6975 68.2675 17.3628 68.7875 18.2346C69.3075 19.1063 69.5675 20.154 69.5675 21.3775V21.7446C69.5675 22.9681 69.3075 24.0158 68.7875 24.8875C68.2675 25.7593 67.5563 26.4246 66.654 26.8834C65.7516 27.3422 64.7346 27.5716 63.6028 27.5716ZM63.6028 25.0022C64.4899 25.0022 65.224 24.7193 65.8052 24.1534C66.3863 23.5722 66.6769 22.7463 66.6769 21.6758V21.4463C66.6769 20.3758 66.3863 19.5575 65.8052 18.9916C65.2393 18.4105 64.5052 18.1199 63.6028 18.1199C62.7157 18.1199 61.9816 18.4105 61.4005 18.9916C60.8193 19.5575 60.5287 20.3758 60.5287 21.4463V21.6758C60.5287 22.7463 60.8193 23.5722 61.4005 24.1534C61.9816 24.7193 62.7157 25.0022 63.6028 25.0022Z"
        fill="#FFFFFF" />
    <path d="M71.0886 27.2506V11.1917H73.9792V27.2506H71.0886Z" fill="#FFFFFF" />
    <path
        d="M80.3941 27.2505C79.6447 27.2505 79.033 27.021 78.5588 26.5622C78.1 26.0881 77.8706 25.461 77.8706 24.681V18.2575H75.0259V15.8716H77.8706V12.3387H80.7612V15.8716H83.8812V18.2575H80.7612V24.1763C80.7612 24.6352 80.9753 24.8646 81.4035 24.8646H83.6059V27.2505H80.3941Z"
        fill="#FFFFFF" />
    <path
        d="M90.0766 27.5716C88.593 27.5716 87.3771 27.2505 86.4289 26.6081C85.4807 25.9658 84.9071 25.0481 84.7083 23.8552L87.3695 23.1669C87.4766 23.7022 87.6524 24.1228 87.8972 24.4287C88.1572 24.7346 88.4707 24.9563 88.8377 25.094C89.2201 25.2163 89.633 25.2775 90.0766 25.2775C90.7495 25.2775 91.2466 25.1628 91.5677 24.9334C91.8889 24.6887 92.0495 24.3905 92.0495 24.0387C92.0495 23.6869 91.8966 23.4193 91.5907 23.2358C91.2848 23.0369 90.7954 22.8763 90.1224 22.754L89.4801 22.6393C88.6848 22.4863 87.9583 22.2799 87.3007 22.0199C86.643 21.7446 86.1154 21.3699 85.7177 20.8958C85.3201 20.4216 85.1213 19.8099 85.1213 19.0605C85.1213 17.9287 85.5342 17.0646 86.3601 16.4681C87.186 15.8563 88.2719 15.5505 89.6177 15.5505C90.8872 15.5505 91.9424 15.8334 92.7836 16.3993C93.6248 16.9652 94.1754 17.7069 94.4354 18.6246L91.7513 19.4505C91.6289 18.8693 91.3766 18.4563 90.9942 18.2116C90.6272 17.9669 90.1683 17.8446 89.6177 17.8446C89.0672 17.8446 88.6466 17.944 88.356 18.1428C88.0654 18.3263 87.9201 18.5863 87.9201 18.9228C87.9201 19.2899 88.073 19.5652 88.3789 19.7487C88.6848 19.9169 89.0977 20.0469 89.6177 20.1387L90.2601 20.2534C91.1166 20.4063 91.8889 20.6128 92.5772 20.8728C93.2807 21.1175 93.8313 21.4769 94.2289 21.951C94.6419 22.4099 94.8483 23.0369 94.8483 23.8322C94.8483 25.0252 94.4124 25.9505 93.5407 26.6081C92.6842 27.2505 91.5295 27.5716 90.0766 27.5716Z"
        fill="#FFFFFF" />
    <path
        d="M96.2343 27.2506V11.1917H99.1249V17.271H99.5378C99.6602 17.0263 99.8514 16.7817 100.111 16.537C100.371 16.2923 100.715 16.0934 101.144 15.9405C101.587 15.7722 102.145 15.6882 102.818 15.6882C103.705 15.6882 104.478 15.8947 105.135 16.3076C105.808 16.7053 106.328 17.2635 106.695 17.9823C107.063 18.6858 107.246 19.5116 107.246 20.4599V27.2506H104.355V20.6894C104.355 19.8329 104.141 19.1906 103.713 18.7623C103.3 18.3341 102.704 18.1199 101.924 18.1199C101.037 18.1199 100.348 18.4182 99.859 19.0147C99.3696 19.5959 99.1249 20.4141 99.1249 21.4694V27.2506H96.2343Z"
        fill="#FFFFFF" />
    <path
        d="M109.224 27.2505V15.8716H112.114V27.2505H109.224ZM110.669 14.541C110.149 14.541 109.706 14.3728 109.339 14.0363C108.987 13.6999 108.811 13.2563 108.811 12.7057C108.811 12.1552 108.987 11.7116 109.339 11.3752C109.706 11.0387 110.149 10.8705 110.669 10.8705C111.204 10.8705 111.648 11.0387 112 11.3752C112.351 11.7116 112.527 12.1552 112.527 12.7057C112.527 13.2563 112.351 13.6999 112 14.0363C111.648 14.3728 111.204 14.541 110.669 14.541Z"
        fill="#FFFFFF" />
    <path
        d="M116.052 27.2506V18.2576H113.161V15.8717H116.052V13.7611C116.052 12.9811 116.281 12.3617 116.74 11.9029C117.214 11.4288 117.826 11.1917 118.575 11.1917H121.558V13.5775H119.585C119.156 13.5775 118.942 13.8069 118.942 14.2657V15.8717H121.925V18.2576H118.942V27.2506H116.052Z"
        fill="#FFFFFF" />
    <path
        d="M127.15 27.2505C126.401 27.2505 125.789 27.021 125.315 26.5622C124.856 26.0881 124.627 25.461 124.627 24.681V18.2575H121.782V15.8716H124.627V12.3387H127.517V15.8716H130.637V18.2575H127.517V24.1763C127.517 24.6352 127.731 24.8646 128.16 24.8646H130.362V27.2505H127.15Z"
        fill="#FFFFFF" />
</svg>