<svg width="62" height="62" viewBox="0 0 62 62" fill="none" xmlns="http://www.w3.org/2000/svg">
<path d="M60.8068 31C60.8068 14.5382 47.4618 1.19318 31 1.19318C14.5381 1.19318 1.19318 14.5382 1.19318 31C1.19318 47.4619 14.5381 60.8068 31 60.8068C47.4618 60.8068 60.8068 47.4619 60.8068 31Z" fill="#1A1A1A"/>
<path fill-rule="evenodd" clip-rule="evenodd" d="M22.9128 24.5303H39.0871V37.4696H22.9128V24.5303ZM24.5303 26.1476V27.2395L31 30.1149L37.4696 27.2395V26.1476H24.5303ZM37.4696 29.0095L31 31.8849L24.5303 29.0095V35.8521H37.4696V29.0095Z" fill="#9A9A9A"/>
<path d="M60.8068 31C60.8068 14.5382 47.4618 1.19318 31 1.19318C14.5381 1.19318 1.19318 14.5382 1.19318 31C1.19318 47.4619 14.5381 60.8068 31 60.8068C47.4618 60.8068 60.8068 47.4619 60.8068 31Z" stroke="#242424" stroke-width="1.38636"/>
</svg>
