<?xml version="1.0" encoding="utf-8"?>
<!-- Uploaded to: SVG Repo, www.svgrepo.com, Generator: SVG Repo Mixer Tools -->
<svg fill="#9e9e9e" width="800px" height="800px" viewBox="0 0 32 32" version="1.1" xmlns="http://www.w3.org/2000/svg">
<title>mobile-heart</title>
<path d="M22 0.75h-12c-1.794 0.002-3.248 1.456-3.25 3.25v24c0.002 1.794 1.456 3.248 3.25 3.25h12c1.794-0.001 3.249-1.456 3.25-3.25v-24c-0.002-1.794-1.456-3.248-3.25-3.25h-0zM22.75 28c-0 0.414-0.336 0.75-0.75 0.75h-12c-0.414-0-0.75-0.336-0.75-0.75v-24c0.001-0.414 0.336-0.749 0.75-0.75h12c0.414 0 0.75 0.336 0.75 0.75v0zM18 25.25h-4c-0.69 0-1.25 0.56-1.25 1.25s0.56 1.25 1.25 1.25v0h4c0.69 0 1.25-0.56 1.25-1.25s-0.56-1.25-1.25-1.25v0zM18.533 10.312c-0.255-0.070-0.547-0.11-0.849-0.11-0.647 0-1.251 0.184-1.763 0.502l0.014-0.008c-0.449-0.239-0.981-0.38-1.547-0.38-1.843 0-3.338 1.494-3.338 3.338 0 0.94 0.389 1.79 1.014 2.396l0.001 0.001 2.958 3.28c0.23 0.254 0.561 0.412 0.928 0.412s0.698-0.159 0.927-0.411l0.001-0.001 2.936-3.258c0.701-0.65 1.138-1.576 1.138-2.604 0-0.298-0.037-0.587-0.106-0.863l0.005 0.024c-0.313-1.133-1.187-2.006-2.297-2.313l-0.023-0.005zM18.023 14.329l-0.044 0.047-2.028 2.25-2.073-2.297c-0.21-0.15-0.346-0.393-0.346-0.667 0-0.239 0.102-0.453 0.265-0.603l0.001-0.001c0.146-0.154 0.35-0.253 0.576-0.263l0.002-0c0.278 0.017 0.522 0.146 0.691 0.342l0.001 0.001c0.23 0.218 0.541 0.352 0.884 0.352s0.654-0.134 0.884-0.352l-0.001 0.001c0.211-0.26 0.531-0.425 0.889-0.425 0.057 0 0.113 0.004 0.168 0.012l-0.006-0.001c0.268 0.076 0.475 0.283 0.549 0.545l0.001 0.006c0.007 0.049 0.012 0.105 0.012 0.162 0 0.358-0.165 0.678-0.424 0.888l-0.002 0.002z"></path>
</svg>